<svg width="13" height="13" viewBox="0 0 13 13" fill="none" xmlns="http://www.w3.org/2000/svg">
<path d="M7.02004 5.70129L7.02443 1.68364C7.02442 1.5075 6.95443 1.33856 6.82987 1.214C6.70531 1.08944 6.53637 1.01946 6.36023 1.01944C6.18409 1.01943 6.01516 1.08939 5.89062 1.21393C5.76607 1.33848 5.69611 1.5074 5.69613 1.68355L5.70109 5.70119L1.68344 5.69623C1.5073 5.69622 1.33837 5.76618 1.21383 5.89072C1.08929 6.01527 1.01932 6.18419 1.01934 6.36034C1.01935 6.53648 1.08933 6.70541 1.2139 6.82998C1.33846 6.95454 1.50739 7.02452 1.68354 7.02453L5.70118 7.02014L5.69679 11.0378C5.69644 11.1251 5.71338 11.2116 5.74664 11.2924C5.77989 11.3731 5.8288 11.4465 5.89055 11.5082C5.9523 11.57 6.02566 11.6189 6.1064 11.6521C6.18715 11.6854 6.27367 11.7023 6.36099 11.702C6.44831 11.7024 6.53483 11.6854 6.61557 11.6522C6.69631 11.6189 6.76966 11.57 6.8314 11.5083C6.89314 11.4466 6.94204 11.3732 6.97529 11.2925C7.00853 11.2117 7.02546 11.1252 7.02509 11.0379L7.02013 7.02024L11.0378 7.0252C11.1251 7.02556 11.2116 7.00864 11.2924 6.97539C11.3731 6.94215 11.4464 6.89324 11.5082 6.83151C11.5699 6.76977 11.6188 6.69641 11.6521 6.61567C11.6853 6.53494 11.7022 6.44841 11.7019 6.36109C11.7022 6.27378 11.6853 6.18725 11.652 6.10651C11.6188 6.02577 11.5699 5.9524 11.5081 5.89066C11.4464 5.82891 11.373 5.78 11.2923 5.74674C11.2115 5.71348 11.125 5.69655 11.0377 5.6969L7.02004 5.70129Z" fill="white" stroke="white"/>
</svg>
