<svg width="24" height="26" viewBox="0 0 24 26" fill="none" xmlns="http://www.w3.org/2000/svg">
<path d="M7.59162 22.1996C7.87067 23.5649 8.76646 24.7236 10.0172 25.3378C11.2681 25.9519 12.7327 25.9519 13.9836 25.3378C15.2344 24.7237 16.1302 23.5649 16.4092 22.1996H19.4091C20.5474 22.198 21.6383 21.7446 22.4424 20.939C23.2464 20.1334 23.6978 19.0415 23.6974 17.9035C23.697 16.7654 23.2449 15.6738 22.4404 14.8688L21.9351 14.3648C21.4558 13.8846 21.1097 13.2878 20.9309 12.6333L18.9316 5.2939C18.3747 3.25224 16.9462 1.56009 15.0268 0.66852C13.1077 -0.22284 10.8931 -0.22284 8.97371 0.66852C7.05439 1.56009 5.62581 3.25219 5.06894 5.2939L3.06744 12.6333C2.88845 13.2878 2.54231 13.8846 2.06299 14.3648L1.55775 14.8688C0.752787 15.6744 0.300576 16.7666 0.300781 17.9055C0.300982 19.0444 0.753394 20.1364 1.55878 20.9418C2.36394 21.747 3.45623 22.1996 4.59507 22.1996H7.59162ZM12.0004 23.9996C11.444 23.9978 10.9016 23.8238 10.4478 23.5016C9.99395 23.1793 9.65103 22.7245 9.46599 22.1996H14.5349C14.3499 22.7245 14.0069 23.1794 13.5531 23.5016C13.0993 23.8238 12.5569 23.9978 12.0004 23.9996ZM2.10044 17.9048C2.09783 17.2422 2.361 16.6062 2.83129 16.1396L3.33533 15.6343C4.03523 14.9334 4.54031 14.0619 4.80043 13.1059L6.80553 5.76702C7.22278 4.23661 8.29356 2.96818 9.73192 2.30002C11.1705 1.63165 12.8303 1.63165 14.2689 2.30002C15.7073 2.96818 16.778 4.23661 17.1953 5.76702L19.2004 13.1059C19.4611 14.0631 19.9674 14.9356 20.6691 15.6367L21.1732 16.142C21.6429 16.608 21.906 17.2431 21.904 17.9048C21.903 18.5661 21.6398 19.2002 21.1722 19.6678C20.7045 20.1355 20.0707 20.3987 19.4092 20.3995H4.59517C3.93364 20.3987 3.29963 20.1355 2.83215 19.6678C2.36447 19.2001 2.1013 18.5661 2.10032 17.9048H2.10044Z" fill="#2E3A59"/>
</svg>
