<svg width="13" height="13" viewBox="0 0 13 13" fill="none" xmlns="http://www.w3.org/2000/svg">
<path fill-rule="evenodd" clip-rule="evenodd" d="M12.0417 5.70833L2.64856 5.70833L5.52469 2.25667C5.80494 1.921 5.75902 1.42146 5.42335 1.142C5.0869 0.86175 4.58815 0.907667 4.30869 1.24333L0.350353 5.99333C0.319478 6.03054 0.303644 6.07408 0.280686 6.11525C0.261686 6.1485 0.238728 6.177 0.224478 6.21341C0.188853 6.30446 0.167478 6.40025 0.167478 6.49683C0.167478 6.49762 0.166686 6.49921 0.166686 6.5C0.166686 6.50079 0.167478 6.50237 0.167478 6.50316C0.167478 6.59975 0.188853 6.69554 0.224478 6.78658C0.238728 6.823 0.261686 6.8515 0.280686 6.88475C0.303644 6.92591 0.319478 6.96946 0.350353 7.00666L4.30869 11.7567C4.46544 11.9443 4.69027 12.0417 4.91669 12.0417C5.0956 12.0417 5.27531 11.9815 5.42335 11.858C5.75902 11.5785 5.80494 11.079 5.52469 10.7433L2.64856 7.29167L12.0417 7.29167C12.4787 7.29167 12.8334 6.937 12.8334 6.5C12.8334 6.063 12.4787 5.70833 12.0417 5.70833Z" fill="#3D455B"/>
</svg>
