<svg width="13" height="13" viewBox="0 0 13 13" fill="none" xmlns="http://www.w3.org/2000/svg">
<path fill-rule="evenodd" clip-rule="evenodd" d="M0.958312 7.29167L10.3514 7.29167L7.47531 10.7433C7.19506 11.079 7.24098 11.5785 7.57665 11.858C7.9131 12.1383 8.41185 12.0923 8.69131 11.7567L12.6496 7.00667C12.6805 6.96946 12.6964 6.92592 12.7193 6.88475C12.7383 6.8515 12.7613 6.823 12.7755 6.78659C12.8111 6.69554 12.8325 6.59975 12.8325 6.50317C12.8325 6.50238 12.8333 6.50079 12.8333 6.5C12.8333 6.49921 12.8325 6.49763 12.8325 6.49684C12.8325 6.40025 12.8111 6.30446 12.7755 6.21342C12.7613 6.177 12.7383 6.1485 12.7193 6.11525C12.6964 6.07409 12.6805 6.03054 12.6496 5.99334L8.69131 1.24334C8.53456 1.05571 8.30973 0.958335 8.08331 0.958335C7.9044 0.958335 7.72469 1.0185 7.57665 1.142C7.24098 1.42146 7.19506 1.921 7.47531 2.25667L10.3514 5.70834L0.958313 5.70833C0.521312 5.70833 0.166646 6.063 0.166646 6.5C0.166645 6.937 0.521312 7.29167 0.958312 7.29167Z" fill="#3D455B"/>
</svg>
